<mxfile host="app.diagrams.net" modified="2022-02-16T19:48:44.185Z" agent="5.0 (Windows NT 10.0; Win64; x64) AppleWebKit/537.36 (KHTML, like Gecko) Chrome/98.0.4758.102 Safari/537.36" etag="cA0kb4xonSFNelrXLzRC" version="16.5.3" type="github">
  <diagram id="rY7nypjyBQNnHECJmD8x" name="Page-1">
    <mxGraphModel dx="1022" dy="468" grid="1" gridSize="10" guides="1" tooltips="1" connect="1" arrows="1" fold="1" page="1" pageScale="1" pageWidth="850" pageHeight="1100" math="0" shadow="0">
      <root>
        <mxCell id="0" />
        <mxCell id="1" parent="0" />
        <mxCell id="QaNSp-T8NadGFMgmojFY-3" value="" style="edgeStyle=orthogonalEdgeStyle;rounded=0;orthogonalLoop=1;jettySize=auto;html=1;" edge="1" parent="1" source="QaNSp-T8NadGFMgmojFY-1" target="QaNSp-T8NadGFMgmojFY-2">
          <mxGeometry relative="1" as="geometry" />
        </mxCell>
        <mxCell id="QaNSp-T8NadGFMgmojFY-1" value="Student fills all the dates for building study plan" style="rounded=0;whiteSpace=wrap;html=1;" vertex="1" parent="1">
          <mxGeometry x="40" y="40" width="120" height="60" as="geometry" />
        </mxCell>
        <mxCell id="QaNSp-T8NadGFMgmojFY-5" value="" style="edgeStyle=orthogonalEdgeStyle;rounded=0;orthogonalLoop=1;jettySize=auto;html=1;" edge="1" parent="1" source="QaNSp-T8NadGFMgmojFY-2" target="QaNSp-T8NadGFMgmojFY-4">
          <mxGeometry relative="1" as="geometry" />
        </mxCell>
        <mxCell id="QaNSp-T8NadGFMgmojFY-2" value="Student clicks on create study plan" style="whiteSpace=wrap;html=1;rounded=0;" vertex="1" parent="1">
          <mxGeometry x="240" y="40" width="120" height="60" as="geometry" />
        </mxCell>
        <mxCell id="QaNSp-T8NadGFMgmojFY-7" value="" style="edgeStyle=orthogonalEdgeStyle;rounded=0;orthogonalLoop=1;jettySize=auto;html=1;" edge="1" parent="1" source="QaNSp-T8NadGFMgmojFY-4" target="QaNSp-T8NadGFMgmojFY-6">
          <mxGeometry relative="1" as="geometry" />
        </mxCell>
        <mxCell id="QaNSp-T8NadGFMgmojFY-4" value="While creating study plan keep testdate+1 entries in some separate collection" style="whiteSpace=wrap;html=1;rounded=0;" vertex="1" parent="1">
          <mxGeometry x="440" y="40" width="120" height="60" as="geometry" />
        </mxCell>
        <mxCell id="QaNSp-T8NadGFMgmojFY-9" value="" style="edgeStyle=orthogonalEdgeStyle;rounded=0;orthogonalLoop=1;jettySize=auto;html=1;" edge="1" parent="1" source="QaNSp-T8NadGFMgmojFY-6" target="QaNSp-T8NadGFMgmojFY-8">
          <mxGeometry relative="1" as="geometry" />
        </mxCell>
        <mxCell id="QaNSp-T8NadGFMgmojFY-6" value="Student logins the next day of the test" style="whiteSpace=wrap;html=1;rounded=0;" vertex="1" parent="1">
          <mxGeometry x="640" y="40" width="120" height="60" as="geometry" />
        </mxCell>
        <mxCell id="QaNSp-T8NadGFMgmojFY-13" value="" style="edgeStyle=orthogonalEdgeStyle;rounded=0;orthogonalLoop=1;jettySize=auto;html=1;" edge="1" parent="1" source="QaNSp-T8NadGFMgmojFY-8" target="QaNSp-T8NadGFMgmojFY-12">
          <mxGeometry relative="1" as="geometry" />
        </mxCell>
        <mxCell id="QaNSp-T8NadGFMgmojFY-16" value="" style="edgeStyle=orthogonalEdgeStyle;rounded=0;orthogonalLoop=1;jettySize=auto;html=1;" edge="1" parent="1" source="QaNSp-T8NadGFMgmojFY-8" target="QaNSp-T8NadGFMgmojFY-15">
          <mxGeometry relative="1" as="geometry" />
        </mxCell>
        <mxCell id="QaNSp-T8NadGFMgmojFY-8" value="check if student has any of the test date within 21 days" style="whiteSpace=wrap;html=1;rounded=0;" vertex="1" parent="1">
          <mxGeometry x="640" y="180" width="120" height="60" as="geometry" />
        </mxCell>
        <mxCell id="QaNSp-T8NadGFMgmojFY-12" value="Don&#39;t do anything" style="whiteSpace=wrap;html=1;rounded=0;" vertex="1" parent="1">
          <mxGeometry x="640" y="320" width="120" height="60" as="geometry" />
        </mxCell>
        <mxCell id="QaNSp-T8NadGFMgmojFY-18" value="" style="edgeStyle=orthogonalEdgeStyle;rounded=0;orthogonalLoop=1;jettySize=auto;html=1;" edge="1" parent="1" source="QaNSp-T8NadGFMgmojFY-15" target="QaNSp-T8NadGFMgmojFY-17">
          <mxGeometry relative="1" as="geometry" />
        </mxCell>
        <mxCell id="QaNSp-T8NadGFMgmojFY-20" value="" style="edgeStyle=orthogonalEdgeStyle;rounded=0;orthogonalLoop=1;jettySize=auto;html=1;" edge="1" parent="1" source="QaNSp-T8NadGFMgmojFY-15" target="QaNSp-T8NadGFMgmojFY-19">
          <mxGeometry relative="1" as="geometry" />
        </mxCell>
        <mxCell id="QaNSp-T8NadGFMgmojFY-15" value="Check if the filetered entries has popupcount greater than 0" style="whiteSpace=wrap;html=1;rounded=0;" vertex="1" parent="1">
          <mxGeometry x="440" y="180" width="120" height="60" as="geometry" />
        </mxCell>
        <mxCell id="QaNSp-T8NadGFMgmojFY-17" value="&#xa;&#xa;&lt;span style=&quot;color: rgb(0, 0, 0); font-family: helvetica; font-size: 12px; font-style: normal; font-weight: 400; letter-spacing: normal; text-align: center; text-indent: 0px; text-transform: none; word-spacing: 0px; background-color: rgb(248, 249, 250); display: inline; float: none;&quot;&gt;Don&#39;t do anything&lt;/span&gt;&#xa;&#xa;" style="whiteSpace=wrap;html=1;rounded=0;" vertex="1" parent="1">
          <mxGeometry x="440" y="320" width="120" height="60" as="geometry" />
        </mxCell>
        <mxCell id="QaNSp-T8NadGFMgmojFY-22" value="" style="edgeStyle=orthogonalEdgeStyle;rounded=0;orthogonalLoop=1;jettySize=auto;html=1;" edge="1" parent="1" source="QaNSp-T8NadGFMgmojFY-19" target="QaNSp-T8NadGFMgmojFY-21">
          <mxGeometry relative="1" as="geometry" />
        </mxCell>
        <mxCell id="QaNSp-T8NadGFMgmojFY-19" value="Show the popup asking information from the student" style="whiteSpace=wrap;html=1;rounded=0;" vertex="1" parent="1">
          <mxGeometry x="240" y="180" width="120" height="60" as="geometry" />
        </mxCell>
        <mxCell id="QaNSp-T8NadGFMgmojFY-24" value="" style="edgeStyle=orthogonalEdgeStyle;rounded=0;orthogonalLoop=1;jettySize=auto;html=1;" edge="1" parent="1" source="QaNSp-T8NadGFMgmojFY-21" target="QaNSp-T8NadGFMgmojFY-23">
          <mxGeometry relative="1" as="geometry" />
        </mxCell>
        <mxCell id="QaNSp-T8NadGFMgmojFY-21" value="Show two fields asking for last test score" style="whiteSpace=wrap;html=1;rounded=0;" vertex="1" parent="1">
          <mxGeometry x="40" y="180" width="120" height="60" as="geometry" />
        </mxCell>
        <mxCell id="QaNSp-T8NadGFMgmojFY-28" value="" style="edgeStyle=orthogonalEdgeStyle;rounded=0;orthogonalLoop=1;jettySize=auto;html=1;" edge="1" parent="1" source="QaNSp-T8NadGFMgmojFY-23">
          <mxGeometry relative="1" as="geometry">
            <mxPoint x="240" y="440" as="targetPoint" />
          </mxGeometry>
        </mxCell>
        <mxCell id="QaNSp-T8NadGFMgmojFY-23" value="Ask for the future expectations ( dropdown )" style="whiteSpace=wrap;html=1;rounded=0;" vertex="1" parent="1">
          <mxGeometry x="40" y="410" width="120" height="60" as="geometry" />
        </mxCell>
        <mxCell id="QaNSp-T8NadGFMgmojFY-30" value="" style="edgeStyle=orthogonalEdgeStyle;rounded=0;orthogonalLoop=1;jettySize=auto;html=1;" edge="1" parent="1" source="QaNSp-T8NadGFMgmojFY-27" target="QaNSp-T8NadGFMgmojFY-29">
          <mxGeometry relative="1" as="geometry" />
        </mxCell>
        <mxCell id="QaNSp-T8NadGFMgmojFY-32" value="" style="edgeStyle=orthogonalEdgeStyle;rounded=0;orthogonalLoop=1;jettySize=auto;html=1;" edge="1" parent="1" source="QaNSp-T8NadGFMgmojFY-27" target="QaNSp-T8NadGFMgmojFY-31">
          <mxGeometry relative="1" as="geometry" />
        </mxCell>
        <mxCell id="QaNSp-T8NadGFMgmojFY-27" value="Student hits on cancel or submit" style="whiteSpace=wrap;html=1;rounded=0;" vertex="1" parent="1">
          <mxGeometry x="240" y="410" width="120" height="60" as="geometry" />
        </mxCell>
        <mxCell id="QaNSp-T8NadGFMgmojFY-34" value="" style="edgeStyle=orthogonalEdgeStyle;rounded=0;orthogonalLoop=1;jettySize=auto;html=1;entryX=0.5;entryY=1;entryDx=0;entryDy=0;" edge="1" parent="1" source="QaNSp-T8NadGFMgmojFY-29" target="QaNSp-T8NadGFMgmojFY-31">
          <mxGeometry relative="1" as="geometry">
            <mxPoint x="440" y="580" as="targetPoint" />
          </mxGeometry>
        </mxCell>
        <mxCell id="QaNSp-T8NadGFMgmojFY-29" value="Save the information" style="whiteSpace=wrap;html=1;rounded=0;" vertex="1" parent="1">
          <mxGeometry x="240" y="550" width="120" height="60" as="geometry" />
        </mxCell>
        <mxCell id="QaNSp-T8NadGFMgmojFY-36" value="" style="edgeStyle=orthogonalEdgeStyle;rounded=0;orthogonalLoop=1;jettySize=auto;html=1;" edge="1" parent="1" source="QaNSp-T8NadGFMgmojFY-31" target="QaNSp-T8NadGFMgmojFY-35">
          <mxGeometry relative="1" as="geometry" />
        </mxCell>
        <mxCell id="QaNSp-T8NadGFMgmojFY-31" value="Descrease the popup count from db" style="whiteSpace=wrap;html=1;rounded=0;" vertex="1" parent="1">
          <mxGeometry x="440" y="410" width="120" height="60" as="geometry" />
        </mxCell>
        <mxCell id="QaNSp-T8NadGFMgmojFY-35" value="End" style="whiteSpace=wrap;html=1;rounded=0;" vertex="1" parent="1">
          <mxGeometry x="640" y="410" width="120" height="60" as="geometry" />
        </mxCell>
        <mxCell id="QaNSp-T8NadGFMgmojFY-37" value="Yes" style="text;html=1;strokeColor=none;fillColor=none;align=center;verticalAlign=middle;whiteSpace=wrap;rounded=0;" vertex="1" parent="1">
          <mxGeometry x="370" y="220" width="60" height="30" as="geometry" />
        </mxCell>
        <mxCell id="QaNSp-T8NadGFMgmojFY-38" value="Yes" style="text;html=1;strokeColor=none;fillColor=none;align=center;verticalAlign=middle;whiteSpace=wrap;rounded=0;" vertex="1" parent="1">
          <mxGeometry x="570" y="220" width="60" height="30" as="geometry" />
        </mxCell>
        <mxCell id="QaNSp-T8NadGFMgmojFY-39" value="No" style="text;html=1;strokeColor=none;fillColor=none;align=center;verticalAlign=middle;whiteSpace=wrap;rounded=0;" vertex="1" parent="1">
          <mxGeometry x="710" y="270" width="60" height="30" as="geometry" />
        </mxCell>
        <mxCell id="QaNSp-T8NadGFMgmojFY-40" value="No" style="text;html=1;strokeColor=none;fillColor=none;align=center;verticalAlign=middle;whiteSpace=wrap;rounded=0;" vertex="1" parent="1">
          <mxGeometry x="500" y="270" width="60" height="30" as="geometry" />
        </mxCell>
        <mxCell id="QaNSp-T8NadGFMgmojFY-41" value="Cancel" style="text;html=1;strokeColor=none;fillColor=none;align=center;verticalAlign=middle;whiteSpace=wrap;rounded=0;" vertex="1" parent="1">
          <mxGeometry x="300" y="500" width="60" height="30" as="geometry" />
        </mxCell>
        <mxCell id="QaNSp-T8NadGFMgmojFY-42" value="Submit" style="text;html=1;strokeColor=none;fillColor=none;align=center;verticalAlign=middle;whiteSpace=wrap;rounded=0;" vertex="1" parent="1">
          <mxGeometry x="370" y="440" width="60" height="30" as="geometry" />
        </mxCell>
      </root>
    </mxGraphModel>
  </diagram>
</mxfile>
